<svg width="24" height="24" viewBox="0 0 24 24" fill="none" xmlns="http://www.w3.org/2000/svg">
<g clip-path="url(#clip0_201_73)">
<mask id="mask0_201_73" style="mask-type:luminance" maskUnits="userSpaceOnUse" x="0" y="0" width="24" height="24">
<path d="M0 0H24V24H0V0Z" fill="white"/>
</mask>
<g mask="url(#mask0_201_73)">
<path d="M11.3851 15.275C12.4961 15.271 14.9251 15.262 14.8971 13.717C14.8701 12.137 12.5371 12.232 11.4001 12.279C11.2731 12.284 11.1601 12.289 11.0681 12.29L11.1201 15.277C11.1951 15.275 11.2851 15.275 11.3851 15.275ZM11.2671 10.922C12.1941 10.921 14.2171 10.919 14.1931 9.514C14.1671 8.077 12.2241 8.162 11.2751 8.204C11.1681 8.209 11.0751 8.213 10.9971 8.214L11.0441 10.923L11.2671 10.922Z" fill="black"/>
<path fill-rule="evenodd" clip-rule="evenodd" d="M9.09604 23.641C15.526 25.244 22.038 21.331 23.641 14.903C25.244 8.474 21.33 1.962 14.9 0.360001C8.47404 -1.244 1.96204 2.67 0.360043 9.1C-1.24296 15.528 2.67004 22.04 9.09704 23.642L9.09604 23.641ZM13.378 6.621C15.132 6.745 16.528 7.259 16.711 8.863C16.847 10.037 16.367 10.752 15.588 11.166C16.888 11.454 17.713 12.209 17.583 13.937C17.422 16.082 15.835 16.685 13.557 16.855L13.595 19.105L12.239 19.13L12.2 16.91C11.849 16.916 11.489 16.92 11.116 16.918L11.156 19.148L9.80004 19.172L9.76004 16.918L9.37704 16.921C9.18304 16.922 8.98704 16.923 8.79104 16.927L7.02504 16.957L7.26604 15.333C7.26604 15.333 8.27004 15.331 8.25204 15.316C8.63604 15.308 8.73304 15.031 8.75404 14.857L8.69304 11.3L8.79004 11.298H8.83604C8.78825 11.2925 8.74014 11.2902 8.69204 11.291L8.64804 8.751C8.59104 8.477 8.40704 8.161 7.85804 8.171C7.87304 8.151 6.87204 8.188 6.87204 8.188L6.84604 6.74L8.71804 6.708V6.715C8.99904 6.71 9.28804 6.7 9.58104 6.689L9.54304 4.46L10.899 4.437L10.937 6.621C11.299 6.608 11.663 6.594 12.02 6.588L11.982 4.418L13.339 4.394L13.378 6.623V6.621Z" fill="black"/>
</g>
</g>
<defs>
<clipPath id="clip0_201_73">
<rect width="24" height="24" fill="white"/>
</clipPath>
</defs>
</svg>
