<svg width="1024" height="1024" viewBox="0 0 1024 1024" fill="none" xmlns="http://www.w3.org/2000/svg">
<path d="M35.9968 29.8428C32.5895 29.8428 29.8397 32.5927 29.8397 36C29.8397 39.4073 32.5895 42.1572 35.9968 42.1572C39.404 42.1572 42.1538 39.4073 42.1538 36C42.1538 32.5927 39.404 29.8428 35.9968 29.8428ZM35.9968 40.0017C33.7933 40.0017 31.9951 38.2035 31.9951 36C31.9951 33.7965 33.7933 31.9983 35.9968 31.9983C38.2002 31.9983 39.9984 33.7965 39.9984 36C39.9984 38.2035 38.2002 40.0017 35.9968 40.0017ZM42.406 28.1557C41.6105 28.1557 40.968 28.7981 40.968 29.5937C40.968 30.3892 41.6105 31.0316 42.406 31.0316C43.2015 31.0316 43.8439 30.3922 43.8439 29.5937C43.8442 29.4048 43.8071 29.2177 43.735 29.0431C43.6628 28.8685 43.5569 28.7099 43.4233 28.5763C43.2897 28.4428 43.1311 28.3369 42.9565 28.2647C42.782 28.1925 42.5949 28.1555 42.406 28.1557ZM47.9987 36C47.9987 34.3429 48.0137 32.7008 47.9206 31.0467C47.8275 29.1254 47.3893 27.4202 45.9843 26.0153C44.5764 24.6073 42.8743 24.172 40.953 24.0789C39.2959 23.9859 37.6539 24.0009 35.9998 24.0009C34.3427 24.0009 32.7006 23.9859 31.0465 24.0789C29.1253 24.172 27.4201 24.6103 26.0152 26.0153C24.6073 27.4232 24.172 29.1254 24.0789 31.0467C23.9859 32.7038 24.0009 34.3459 24.0009 36C24.0009 37.6541 23.9859 39.2992 24.0789 40.9533C24.172 42.8746 24.6103 44.5798 26.0152 45.9847C27.4231 47.3927 29.1253 47.828 31.0465 47.9211C32.7036 48.0141 34.3457 47.9991 35.9998 47.9991C37.6569 47.9991 39.2989 48.0141 40.953 47.9211C42.8743 47.828 44.5794 47.3897 45.9843 45.9847C47.3923 44.5768 47.8275 42.8746 47.9206 40.9533C48.0167 39.2992 47.9987 37.6571 47.9987 36ZM45.3569 43.0788C45.1378 43.6252 44.8736 44.0334 44.4503 44.4537C44.0271 44.877 43.6218 45.1412 43.0754 45.3603C41.4964 45.9877 37.7469 45.8467 35.9968 45.8467C34.2466 45.8467 30.4942 45.9877 28.9151 45.3633C28.3688 45.1442 27.9605 44.88 27.5402 44.4567C27.1169 44.0334 26.8528 43.6282 26.6336 43.0818C26.0092 41.4997 26.1503 37.7502 26.1503 36C26.1503 34.2498 26.0092 30.4973 26.6336 28.9182C26.8528 28.3718 27.1169 27.9636 27.5402 27.5433C27.9635 27.123 28.3688 26.8558 28.9151 26.6367C30.4942 26.0123 34.2466 26.1533 35.9968 26.1533C37.7469 26.1533 41.4994 26.0123 43.0784 26.6367C43.6248 26.8558 44.0331 27.12 44.4533 27.5433C44.8766 27.9666 45.1408 28.3718 45.3599 28.9182C45.9843 30.4973 45.8432 34.2498 45.8432 36C45.8432 37.7502 45.9843 41.4997 45.3569 43.0788Z" fill="black"/>
</svg>
